<svg width="48" height="48" viewBox="0 0 48 48" fill="none" xmlns="http://www.w3.org/2000/svg" role="img" aria-label="SmartInvoice Pro app icon">
  <defs>
    <linearGradient id="tile" x1="0" y1="0" x2="48" y2="48" gradientUnits="userSpaceOnUse">
      <stop stop-color="#2563EB"/>
      <stop offset="1" stop-color="#1D4ED8"/>
    </linearGradient>
  </defs>
  <!-- Squircle tile -->
  <rect width="48" height="48" rx="11" fill="url(#tile)"/>
  <!-- Document page in negative space -->
  <rect x="11" y="9" width="26" height="30" rx="6" fill="#FFFFFF" opacity="0.14"/>
  <!-- S monogram -->
  <path d="M34.2 17.4C34.2 13.6 30.2 12 24 12C17.8 12 13.8 14.2 13.8 17.9C13.8 21.3 17 22.9 24 23.9C31 24.9 34.2 26.7 34.2 30.2C34.2 34 30.1 35.8 24 35.8C18.2 35.8 14.2 34.2 13.4 31"
        stroke="#FFFFFF" stroke-width="6" stroke-linecap="round" stroke-linejoin="round"/>
  <!-- Growth arrow -->
  <path d="M29.5 20L38.6 11M33.8 10.8H39V16"
        stroke="#22D3EE" stroke-width="3.2" stroke-linecap="round" stroke-linejoin="round"/>
</svg>
